<mxfile host="app.diagrams.net" modified="2023-04-19T06:51:19.259Z" agent="Mozilla/5.0 (Macintosh; Intel Mac OS X 10_15_7) AppleWebKit/537.36 (KHTML, like Gecko) Chrome/112.0.0.0 Safari/537.36" version="21.1.7" etag="IHHyrQvxCY42dXreiBI3" type="github">
  <diagram name="第 1 页" id="PDtI5TwQijoS2rOWNoLW">
    <mxGraphModel>
      <root>
        <mxCell id="0" />
        <mxCell id="1" parent="0" />
      </root>
    </mxGraphModel>
  </diagram>
</mxfile>
